<svg class="icon" viewBox="0 0 1024 1024" xmlns="http://www.w3.org/2000/svg" width="200" height="200"><defs><style/></defs><path d="M136.533 136.533h546.134V204.8H136.533zm0 136.534h546.134v68.266H136.533zm0 136.533h546.134v68.267H136.533zm0 136.533H204.8V614.4h-68.267zm0 136.534H204.8v68.266h-68.267zm329.728 157.696h68.267l11.605 47.104h43.691l-68.267-204.8h-43.69l-68.267 204.8h43.008zM496.3 735.232a81.92 81.92 0 0 0 0-17.067 84.65 84.65 0 0 0 0 17.75l21.162 68.266h-39.594zM691.54 887.467a115.37 115.37 0 0 0 53.248-10.923v-38.912a84.65 84.65 0 0 1-45.738 12.97 53.248 53.248 0 0 1-42.326-17.749 68.267 68.267 0 0 1-15.701-47.104 68.267 68.267 0 0 1 16.384-48.469 55.296 55.296 0 0 1 43.69-18.432 79.872 79.872 0 0 1 43.009 11.605v-40.96a121.515 121.515 0 0 0-45.739-7.509 92.843 92.843 0 0 0-68.267 30.037 108.544 108.544 0 0 0-27.989 76.459 101.035 101.035 0 0 0 24.576 68.267 86.699 86.699 0 0 0 64.853 30.72zm195.926-35.499h-69.632V682.667h-40.278v204.8h109.91v-35.499z"/><path d="M819.2 546.133V0H0v1024h1024V546.133zm-750.933 409.6V68.267h682.666v477.866H273.067v409.6zm887.466 0h-614.4V614.4h614.4z"/></svg>