<svg class="icon" viewBox="0 0 1024 1024" xmlns="http://www.w3.org/2000/svg" width="200" height="200"><defs><style/></defs><path d="M914.561 720.735c0 65.695-53.582 119.277-119.277 119.277H198.897c-65.696 0-119.277-53.582-119.277-119.277h834.941zM765.464 541.819h-29.819v14.91c0 57.309-47.059 104.367-104.367 104.367H303.265c-57.309 0-104.367-47.059-104.367-104.367V213.807c0-16.308 13.512-29.819 29.819-29.819h536.747c98.776 0 178.916 80.14 178.916 178.916s-80.14 178.915-178.916 178.915zm0-268.374h-29.819v178.916h29.819c49.389 0 89.458-40.069 89.458-89.458 0-49.387-40.069-89.458-89.458-89.458z"/></svg>