<svg class="icon" viewBox="0 0 1024 1024" xmlns="http://www.w3.org/2000/svg" width="200" height="200"><defs><style/></defs><path d="M507.429 676.571l66.285-66.285-86.857-86.857-66.286 66.285v32h54.858v54.857h32zm251.428-411.428q-9.143-9.143-18.857.571l-200 200q-9.714 9.715-.571 18.857t18.857-.571l200-200q9.714-9.714.571-18.857zm45.714 339.428v108.572q0 68-48.285 116.286T640 877.714H164.571q-68 0-116.285-48.285T0 713.143V237.714q0-68 48.286-116.285T164.57 73.143H640q36 0 66.857 14.286 8.572 4 10.286 13.142 1.714 9.715-5.143 16.572l-28 28q-8 8-18.286 4.571-13.143-3.428-25.714-3.428H164.571q-37.714 0-64.571 26.857t-26.857 64.571v475.429q0 37.714 26.857 64.571t64.571 26.857H640q37.714 0 64.571-26.857t26.858-64.571v-72q0-7.429 5.142-12.572L773.143 592q8.571-8.571 20-4t11.428 16.571zm-54.857-421.714L914.286 347.43l-384 384H365.714V566.857zm253.715 75.429l-52.572 52.571-164.571-164.571 52.571-52.572q16-16 38.857-16t38.857 16l86.858 86.857q16 16 16 38.858t-16 38.857z"/></svg>