<svg class="icon" viewBox="0 0 1024 1024" xmlns="http://www.w3.org/2000/svg" width="200" height="200"><defs><style/></defs><path d="M657.7 548.571h180.59q-.585-1.682-1.462-4.534t-1.463-4.535L714.24 256.073H309.687L188.563 539.502q-.586 1.17-1.463 4.535t-1.463 4.534h180.59l54.272 109.715h182.857zm293.157 17.116v275.456q0 14.848-10.825 25.746t-25.746 10.825H109.715q-14.848 0-25.747-10.825t-10.825-25.746V565.687q0-35.401 14.263-70.29L223.379 179.93q5.705-14.262 20.845-23.99t29.989-9.728H749.64q14.848 0 29.989 9.728t20.846 23.99l135.972 315.466q14.263 34.889 14.263 70.29z"/></svg>