<svg class="icon" viewBox="0 0 1024 1024" xmlns="http://www.w3.org/2000/svg" width="200" height="200"><defs><style/></defs><path d="M859.392 256q0-22.82-16.018-38.839t-38.84-16.018-38.838 16.018T749.678 256t16.018 38.839 38.839 16.018 38.839-16.018T859.392 256zm128-164.571q0 142.262-43.154 245.979t-144.823 205.97q-46.3 45.715-111.397 100.572l-11.41 216.576q-1.17 9.143-9.143 14.848l-219.428 128q-4.023 2.267-9.143 2.267-6.876 0-13.166-5.12l-36.571-36.571q-7.461-7.973-4.535-18.286l48.567-157.696L272.64 627.419l-157.696 48.567q-1.682.585-5.12.585-7.973 0-13.166-5.12L60.087 634.88q-9.728-10.825-2.853-22.309l128-219.428q5.705-7.973 14.848-9.143l216.576-11.41q54.857-65.17 100.572-111.397 107.447-106.862 204.58-147.456t246.272-40.594q7.973 0 13.678 5.412t5.705 12.874z"/></svg>