<svg class="icon" viewBox="0 0 1024 1024" xmlns="http://www.w3.org/2000/svg" width="200" height="200"><defs><style/></defs><path d="M872.555 306.304c-22.614 8.128-45.696 9.941-69.163 4.373a119.723 119.723 0 0 1-85.504-158.144c1.75-4.842.853-6.954-3.605-8.96-17.92-8.106-35.542-16.917-53.675-24.533-11.925-4.992-24.533-8.384-36.501-12.373-23.147 47.658-59.456 74.88-112.064 74.88-52.822 0-89.259-27.307-111.979-74.539a411.733 411.733 0 0 0-95.53 39.573c17.215 49.494 10.922 94.635-26.54 131.926-37.375 37.205-82.495 43.712-131.775 26.282a413.29 413.29 0 0 0-39.552 95.51c46.933 22.656 74.197 58.666 74.517 110.997.32 53.163-26.987 89.77-74.539 112.768a410.155 410.155 0 0 0 39.638 95.53c47.808-16.789 91.669-11.37 128.64 23.254 39.957 37.44 47.274 83.627 29.653 134.933a404.95 404.95 0 0 0 95.53 39.467c23.04-47.36 59.35-74.475 111.98-74.453 52.885.064 89.215 27.541 111.893 74.538a411.584 411.584 0 0 0 95.488-39.616c-17.387-49.493-10.816-94.4 26.24-131.626 37.29-37.419 82.432-43.776 132.053-26.539a407.637 407.637 0 0 0 39.51-95.51c-47.787-23.21-74.987-59.946-74.518-113.066.448-52.053 27.563-87.957 74.56-110.656a420.395 420.395 0 0 0-38.016-92.97c-2.048-3.713-4.31-1.92-6.763-1.067zm85.952 82.795a42.667 42.667 0 0 1-22.614 49.642c-34.602 16.726-50.176 39.147-50.453 72.619-.299 34.283 15.253 57.195 50.496 74.304a42.667 42.667 0 0 1 22.55 49.536 450.304 450.304 0 0 1-43.67 105.472 42.667 42.667 0 0 1-51.05 19.179c-36.651-12.736-63.851-7.68-87.809 16.362-23.914 24.022-28.949 51.094-16.213 87.382a42.667 42.667 0 0 1-19.072 51.178 454.23 454.23 0 0 1-105.344 43.691 42.667 42.667 0 0 1-49.77-22.592c-16.726-34.688-39.51-50.368-73.494-50.39-33.92-.02-56.597 15.51-73.579 50.433a42.667 42.667 0 0 1-49.322 22.57 447.339 447.339 0 0 1-105.6-43.562 42.667 42.667 0 0 1-19.328-50.987c13.034-37.973 7.381-65.728-18.475-89.941-23.595-22.102-50.09-26.518-85.333-14.144a42.667 42.667 0 0 1-51.158-19.051 452.821 452.821 0 0 1-43.733-105.45 42.667 42.667 0 0 1 22.55-49.707c35.071-16.939 50.666-39.808 50.453-74.07-.214-33.642-15.787-56.149-50.39-72.853a42.667 42.667 0 0 1-22.656-49.6 455.808 455.808 0 0 1 43.542-105.344 42.667 42.667 0 0 1 51.392-19.243c36.096 12.779 63.317 7.723 87.466-16.298 24-23.894 29.035-51.072 16.32-87.68a42.667 42.667 0 0 1 19.179-51.051 454.4 454.4 0 0 1 105.387-43.67 42.667 42.667 0 0 1 49.706 22.657c16.726 34.73 39.51 50.389 73.536 50.368 33.899 0 56.576-15.616 73.664-50.838a42.667 42.667 0 0 1 51.883-21.845c2.517.832 4.992 1.621 9.28 2.965l7.53 2.347c8.96 2.88 15.787 5.29 22.7 8.192 10.154 4.245 18.09 7.872 35.029 15.83 10.069 4.735 14.4 6.74 19.733 9.151 25.024 11.307 35.35 36.822 26.155 62.336-16 44.352 9.344 91.222 55.253 102.144 14.805 3.52 29.419 2.539 44.864-3.029a33.28 33.28 0 0 1 4.48-1.621c5.27-1.622 10.88-2.454 17.323-1.942 16.853 1.344 29.525 11.094 36.736 24.171a462.89 462.89 0 0 1 41.813 102.357zM522.667 320a202.667 202.667 0 1 0 166.4 86.955 21.333 21.333 0 0 0-35.008 24.384 160 160 0 1 1-69.184-56.128 21.333 21.333 0 0 0 16.597-39.318A202.09 202.09 0 0 0 522.667 320z"/></svg>