<svg class="icon" viewBox="0 0 1024 1024" xmlns="http://www.w3.org/2000/svg" width="200" height="200"><defs><style/></defs><path d="M93.09 93.09v186.183h186.183V93.09H93.09zm0-93.09h186.183a93.09 93.09 0 0 1 93.09 93.09v186.183a93.09 93.09 0 0 1-93.09 93.09H93.09A93.09 93.09 0 0 1 0 279.274V93.09A93.09 93.09 0 0 1 93.09 0zm651.637 744.727V930.91H930.91V744.727H744.727zm0-93.09H930.91a93.09 93.09 0 0 1 93.091 93.09V930.91A93.09 93.09 0 0 1 930.91 1024H744.726a93.09 93.09 0 0 1-93.09-93.09V744.726a93.09 93.09 0 0 1 93.09-93.09zm-238.22 139.775a46.545 46.545 0 1 1 0 93.091H279.274a139.636 139.636 0 0 1-139.637-139.636V469.41a46.545 46.545 0 0 1 93.091 0v275.456a46.545 46.545 0 0 0 46.546 46.545h227.235z"/><path d="M312.134 529.222a46.545 46.545 0 0 1-65.722 65.908l-93.091-92.765a46.545 46.545 0 1 1 65.722-65.908l93.09 92.718zm325.818 42.217a46.545 46.545 0 0 1-65.722 65.954l-186.182-185.53a46.545 46.545 0 0 1 65.722-65.908l186.182 185.484z"/><path d="M386.048 571.439a46.545 46.545 0 0 0 65.722 65.954l186.182-185.53a46.545 46.545 0 0 0-65.722-65.908L386.048 571.439zM125.952 595.13a46.545 46.545 0 0 1-65.722-65.955l93.09-92.718a46.545 46.545 0 0 1 65.723 65.908l-93.091 92.765z"/><path d="M511.814 232.727a46.545 46.545 0 1 1 0-93.09h232.913a139.636 139.636 0 0 1 139.637 139.636v275.316a46.545 46.545 0 0 1-93.091 0V279.273a46.545 46.545 0 0 0-46.546-46.546H511.814z"/><path d="M711.866 494.778a46.545 46.545 0 0 1 65.722-65.908l93.091 92.765a46.545 46.545 0 0 1-65.722 65.908l-93.09-92.718z"/><path d="M898.048 428.87a46.545 46.545 0 0 1 65.722 65.955l-93.09 92.718a46.545 46.545 0 0 1-65.723-65.908l93.091-92.765z"/></svg>