<svg class="icon" viewBox="0 0 1024 1024" xmlns="http://www.w3.org/2000/svg" width="200" height="200"><defs><style/></defs><path d="M292.571 713.143v109.714q0 22.857-16 38.857t-38.857 16H54.857q-22.857 0-38.857-16T0 822.857V713.143q0-22.857 16-38.857t38.857-16h182.857q22.857 0 38.857 16t16 38.857zm0-292.572v109.715q0 22.857-16 38.857t-38.857 16H54.857q-22.857 0-38.857-16T0 530.286V420.57q0-22.857 16-38.857t38.857-16h182.857q22.857 0 38.857 16t16 38.857zm365.715 292.572v109.714q0 22.857-16 38.857t-38.857 16H420.57q-22.857 0-38.857-16t-16-38.857V713.143q0-22.857 16-38.857t38.857-16h182.86q22.857 0 38.857 16t16 38.857zM292.57 128v109.714q0 22.857-16 38.857t-38.857 16H54.857q-22.857 0-38.857-16T0 237.714V128q0-22.857 16-38.857t38.857-16h182.857q22.857 0 38.857 16t16 38.857zm365.715 292.571v109.715q0 22.857-16 38.857t-38.857 16H420.57q-22.857 0-38.857-16t-16-38.857V420.57q0-22.857 16-38.857t38.857-16h182.86q22.857 0 38.857 16t16 38.857zM1024 713.143v109.714q0 22.857-16 38.857t-38.857 16H786.286q-22.857 0-38.857-16t-16-38.857V713.143q0-22.857 16-38.857t38.857-16h182.857q22.857 0 38.857 16t16 38.857zM658.286 128v109.714q0 22.857-16 38.857t-38.857 16H420.57q-22.857 0-38.857-16t-16-38.857V128q0-22.857 16-38.857t38.857-16h182.86q22.857 0 38.857 16t16 38.857zM1024 420.571v109.715q0 22.857-16 38.857t-38.857 16H786.286q-22.857 0-38.857-16t-16-38.857V420.57q0-22.857 16-38.857t38.857-16h182.857q22.857 0 38.857 16t16 38.857zM1024 128v109.714q0 22.857-16 38.857t-38.857 16H786.286q-22.857 0-38.857-16t-16-38.857V128q0-22.857 16-38.857t38.857-16h182.857q22.857 0 38.857 16T1024 128z"/></svg>