<svg class="icon" viewBox="0 0 1152 1024" xmlns="http://www.w3.org/2000/svg" width="225" height="200"><defs><style/></defs><path d="M768 770.621v-52.777c70.492-39.73 128-138.772 128-237.834C896 320.942 896 192 704 192S512 320.942 512 480.01c0 99.062 57.508 198.103 128 237.834v52.777C422.892 788.378 256 895.037 256 1024h896c0-128.963-166.892-235.643-384-253.379z"/><path d="M327.188 795.32c55.317-36.147 124.089-63.631 199.783-80.404-15.053-17.777-28.713-37.622-40.49-59.024-30.412-55.234-46.489-116.06-46.489-175.902 0-86.037 0-167.301 30.597-233.759 29.696-64.512 83.129-104.489 159.232-119.48C612.905 50.278 567.89 0 448 0 256 0 256 128.942 256 288.01c0 99.062 57.508 198.103 128 237.834v52.777C166.892 596.378 0 703.037 0 832h278.999c14.52-12.902 30.597-25.17 48.19-36.68z"/></svg>